<mxfile host="Electron" modified="2025-08-07T02:55:35.255Z" agent="Mozilla/5.0 (Macintosh; Intel Mac OS X 10_15_7) AppleWebKit/537.36 (KHTML, like Gecko) draw.io/23.1.5 Chrome/120.0.6099.109 Electron/28.1.0 Safari/537.36" etag="siKdJqDT6CtyVF8ETlxI" version="23.1.5" type="device">
  <diagram name="第 1 页" id="MKAzq50mg-Emq2xgLHLc">
    <mxGraphModel dx="954" dy="727" grid="0" gridSize="10" guides="1" tooltips="1" connect="1" arrows="1" fold="1" page="0" pageScale="1" pageWidth="1169" pageHeight="827" math="1" shadow="0">
      <root>
        <mxCell id="0" />
        <mxCell id="1" parent="0" />
        <mxCell id="HNVA6WiqorS_5JB8nSDx-4" style="edgeStyle=orthogonalEdgeStyle;rounded=1;orthogonalLoop=1;jettySize=auto;html=1;exitX=1;exitY=0.5;exitDx=0;exitDy=0;" parent="1" source="HNVA6WiqorS_5JB8nSDx-1" edge="1">
          <mxGeometry relative="1" as="geometry">
            <mxPoint x="467.87" y="370" as="sourcePoint" />
            <mxPoint x="680" y="370" as="targetPoint" />
            <Array as="points">
              <mxPoint x="450" y="370" />
              <mxPoint x="450" y="500" />
              <mxPoint x="460" y="500" />
              <mxPoint x="460" y="370" />
              <mxPoint x="470" y="370" />
              <mxPoint x="470" y="500" />
              <mxPoint x="480" y="500" />
              <mxPoint x="480" y="370" />
              <mxPoint x="490" y="370" />
              <mxPoint x="490" y="500" />
              <mxPoint x="500" y="500" />
              <mxPoint x="500" y="370" />
              <mxPoint x="510" y="370" />
              <mxPoint x="510" y="500" />
              <mxPoint x="520" y="500" />
              <mxPoint x="520" y="370" />
              <mxPoint x="530" y="370" />
              <mxPoint x="530" y="500" />
              <mxPoint x="540" y="500" />
              <mxPoint x="540" y="370" />
            </Array>
          </mxGeometry>
        </mxCell>
        <mxCell id="HNVA6WiqorS_5JB8nSDx-1" value="" style="ellipse;whiteSpace=wrap;html=1;aspect=fixed;fillColor=#CCE5FF;strokeColor=#36393d;" parent="1" vertex="1">
          <mxGeometry x="353.87" y="350" width="40" height="40" as="geometry" />
        </mxCell>
        <mxCell id="HNVA6WiqorS_5JB8nSDx-46" style="edgeStyle=orthogonalEdgeStyle;rounded=0;orthogonalLoop=1;jettySize=auto;html=1;entryX=0.5;entryY=1;entryDx=0;entryDy=0;dashed=1;endArrow=openThin;endFill=0;" parent="1" source="HNVA6WiqorS_5JB8nSDx-18" target="HNVA6WiqorS_5JB8nSDx-28" edge="1">
          <mxGeometry relative="1" as="geometry">
            <Array as="points">
              <mxPoint x="603.87" y="350" />
              <mxPoint x="603.87" y="350" />
            </Array>
          </mxGeometry>
        </mxCell>
        <mxCell id="HNVA6WiqorS_5JB8nSDx-18" value="" style="shape=waypoint;sketch=0;fillStyle=solid;size=6;pointerEvents=1;points=[];fillColor=none;resizable=0;rotatable=0;perimeter=centerPerimeter;snapToPoint=1;" parent="1" vertex="1">
          <mxGeometry x="593.87" y="360" width="20" height="20" as="geometry" />
        </mxCell>
        <mxCell id="HNVA6WiqorS_5JB8nSDx-43" style="edgeStyle=orthogonalEdgeStyle;rounded=0;orthogonalLoop=1;jettySize=auto;html=1;exitX=0.5;exitY=0;exitDx=0;exitDy=0;entryX=1;entryY=0.75;entryDx=0;entryDy=0;dashed=1;endArrow=openThin;endFill=0;" parent="1" source="HNVA6WiqorS_5JB8nSDx-28" target="HNVA6WiqorS_5JB8nSDx-34" edge="1">
          <mxGeometry relative="1" as="geometry" />
        </mxCell>
        <mxCell id="HNVA6WiqorS_5JB8nSDx-28" value="&lt;font style=&quot;font-size: 8px;&quot;&gt;PV&lt;/font&gt;" style="ellipse;whiteSpace=wrap;html=1;aspect=fixed;fillColor=#f8cecc;strokeColor=#b85450;" parent="1" vertex="1">
          <mxGeometry x="593.87" y="319" width="20" height="20" as="geometry" />
        </mxCell>
        <mxCell id="L_iJoH3IVwdDoCf6mlqg-5" style="edgeStyle=orthogonalEdgeStyle;rounded=0;orthogonalLoop=1;jettySize=auto;html=1;exitX=0;exitY=0.5;exitDx=0;exitDy=0;entryX=1;entryY=0.5;entryDx=0;entryDy=0;dashed=1;endArrow=openThin;endFill=0;" parent="1" source="HNVA6WiqorS_5JB8nSDx-34" target="L_iJoH3IVwdDoCf6mlqg-3" edge="1">
          <mxGeometry relative="1" as="geometry" />
        </mxCell>
        <mxCell id="HNVA6WiqorS_5JB8nSDx-34" value="&lt;font style=&quot;font-size: 8px;&quot;&gt;&lt;b&gt;PID&lt;br&gt;Controller&lt;/b&gt;&lt;/font&gt;" style="rounded=1;whiteSpace=wrap;html=1;fillColor=#bac8d3;strokeColor=#23445d;" parent="1" vertex="1">
          <mxGeometry x="513.87" y="258" width="43" height="30" as="geometry" />
        </mxCell>
        <mxCell id="HNVA6WiqorS_5JB8nSDx-61" style="edgeStyle=orthogonalEdgeStyle;rounded=0;orthogonalLoop=1;jettySize=auto;html=1;entryX=1;entryY=0.5;entryDx=0;entryDy=0;endArrow=openThin;endFill=0;dashed=1;exitX=0;exitY=0.5;exitDx=0;exitDy=0;" parent="1" source="L_iJoH3IVwdDoCf6mlqg-3" target="HNVA6WiqorS_5JB8nSDx-51" edge="1">
          <mxGeometry relative="1" as="geometry">
            <mxPoint x="430" y="273" as="sourcePoint" />
          </mxGeometry>
        </mxCell>
        <mxCell id="HNVA6WiqorS_5JB8nSDx-45" style="edgeStyle=orthogonalEdgeStyle;rounded=0;orthogonalLoop=1;jettySize=auto;html=1;exitX=0;exitY=0.5;exitDx=0;exitDy=0;entryX=1;entryY=0.25;entryDx=0;entryDy=0;dashed=1;endArrow=openThin;endFill=0;" parent="1" source="HNVA6WiqorS_5JB8nSDx-44" target="HNVA6WiqorS_5JB8nSDx-34" edge="1">
          <mxGeometry relative="1" as="geometry" />
        </mxCell>
        <mxCell id="L_iJoH3IVwdDoCf6mlqg-6" style="edgeStyle=orthogonalEdgeStyle;rounded=0;orthogonalLoop=1;jettySize=auto;html=1;exitX=1;exitY=0.5;exitDx=0;exitDy=0;dashed=1;endArrow=none;endFill=0;startArrow=openThin;startFill=0;" parent="1" source="HNVA6WiqorS_5JB8nSDx-44" edge="1">
          <mxGeometry relative="1" as="geometry">
            <mxPoint x="680" y="265" as="targetPoint" />
          </mxGeometry>
        </mxCell>
        <mxCell id="HNVA6WiqorS_5JB8nSDx-44" value="&lt;span style=&quot;font-size: 8px;&quot;&gt;SP&lt;/span&gt;" style="ellipse;whiteSpace=wrap;html=1;aspect=fixed;fillColor=#d5e8d4;strokeColor=#82b366;" parent="1" vertex="1">
          <mxGeometry x="614.87" y="255" width="20" height="20" as="geometry" />
        </mxCell>
        <mxCell id="HNVA6WiqorS_5JB8nSDx-60" style="edgeStyle=orthogonalEdgeStyle;rounded=0;orthogonalLoop=1;jettySize=auto;html=1;exitX=0.5;exitY=1;exitDx=0;exitDy=0;endArrow=none;endFill=0;strokeColor=#0066CC;" parent="1" source="HNVA6WiqorS_5JB8nSDx-50" edge="1">
          <mxGeometry relative="1" as="geometry">
            <mxPoint x="374.29857142857145" y="350" as="targetPoint" />
          </mxGeometry>
        </mxCell>
        <mxCell id="HNVA6WiqorS_5JB8nSDx-50" value="" style="shape=collate;whiteSpace=wrap;html=1;fillColor=#999999;" parent="1" vertex="1">
          <mxGeometry x="368.12" y="262" width="12.25" height="22" as="geometry" />
        </mxCell>
        <mxCell id="HNVA6WiqorS_5JB8nSDx-51" value="" style="ellipse;whiteSpace=wrap;html=1;aspect=fixed;fillColor=#999999;" parent="1" vertex="1">
          <mxGeometry x="380.37" y="269.25" width="7.5" height="7.5" as="geometry" />
        </mxCell>
        <mxCell id="HNVA6WiqorS_5JB8nSDx-52" style="edgeStyle=orthogonalEdgeStyle;rounded=0;orthogonalLoop=1;jettySize=auto;html=1;exitX=0;exitY=0.5;exitDx=0;exitDy=0;entryX=0.489;entryY=0.528;entryDx=0;entryDy=0;entryPerimeter=0;endArrow=none;endFill=0;" parent="1" source="HNVA6WiqorS_5JB8nSDx-51" target="HNVA6WiqorS_5JB8nSDx-50" edge="1">
          <mxGeometry relative="1" as="geometry" />
        </mxCell>
        <mxCell id="HNVA6WiqorS_5JB8nSDx-55" style="rounded=0;orthogonalLoop=1;jettySize=auto;html=1;exitX=0.5;exitY=0;exitDx=0;exitDy=0;entryX=0;entryY=1;entryDx=0;entryDy=0;endArrow=none;endFill=0;strokeColor=#0066CC;" parent="1" source="HNVA6WiqorS_5JB8nSDx-1" target="HNVA6WiqorS_5JB8nSDx-1" edge="1">
          <mxGeometry relative="1" as="geometry" />
        </mxCell>
        <mxCell id="HNVA6WiqorS_5JB8nSDx-56" style="rounded=0;orthogonalLoop=1;jettySize=auto;html=1;exitX=0.5;exitY=0;exitDx=0;exitDy=0;entryX=1;entryY=1;entryDx=0;entryDy=0;endArrow=none;endFill=0;strokeColor=#0066CC;" parent="1" source="HNVA6WiqorS_5JB8nSDx-1" target="HNVA6WiqorS_5JB8nSDx-1" edge="1">
          <mxGeometry relative="1" as="geometry" />
        </mxCell>
        <mxCell id="HNVA6WiqorS_5JB8nSDx-63" value="&lt;b&gt;屏式过热器&lt;/b&gt;" style="text;html=1;align=center;verticalAlign=middle;resizable=0;points=[];autosize=1;strokeColor=none;fillColor=none;" parent="1" vertex="1">
          <mxGeometry x="456" y="510" width="78" height="26" as="geometry" />
        </mxCell>
        <mxCell id="HNVA6WiqorS_5JB8nSDx-89" style="edgeStyle=orthogonalEdgeStyle;rounded=0;orthogonalLoop=1;jettySize=auto;html=1;strokeColor=#0066CC;" parent="1" source="HNVA6WiqorS_5JB8nSDx-84" target="HNVA6WiqorS_5JB8nSDx-50" edge="1">
          <mxGeometry relative="1" as="geometry">
            <Array as="points">
              <mxPoint x="373.87" y="210" />
            </Array>
          </mxGeometry>
        </mxCell>
        <mxCell id="HNVA6WiqorS_5JB8nSDx-90" style="edgeStyle=orthogonalEdgeStyle;rounded=0;orthogonalLoop=1;jettySize=auto;html=1;strokeColor=#0066CC;" parent="1" source="HNVA6WiqorS_5JB8nSDx-84" edge="1">
          <mxGeometry relative="1" as="geometry">
            <mxPoint x="680" y="210" as="targetPoint" />
          </mxGeometry>
        </mxCell>
        <mxCell id="HNVA6WiqorS_5JB8nSDx-91" style="edgeStyle=orthogonalEdgeStyle;rounded=0;orthogonalLoop=1;jettySize=auto;html=1;strokeColor=#0066CC;startArrow=none;startFill=0;endArrow=none;endFill=0;" parent="1" source="HNVA6WiqorS_5JB8nSDx-84" edge="1">
          <mxGeometry relative="1" as="geometry">
            <mxPoint x="120" y="210" as="targetPoint" />
          </mxGeometry>
        </mxCell>
        <mxCell id="HNVA6WiqorS_5JB8nSDx-84" value="" style="shape=waypoint;sketch=0;fillStyle=solid;size=6;pointerEvents=1;points=[];fillColor=none;resizable=0;rotatable=0;perimeter=centerPerimeter;snapToPoint=1;strokeColor=#0066CC;" parent="1" vertex="1">
          <mxGeometry x="363.87" y="200" width="20" height="20" as="geometry" />
        </mxCell>
        <mxCell id="HNVA6WiqorS_5JB8nSDx-92" value="&lt;b&gt;一级减温喷水&lt;/b&gt;" style="text;html=1;align=center;verticalAlign=middle;resizable=0;points=[];autosize=1;strokeColor=none;fillColor=none;" parent="1" vertex="1">
          <mxGeometry x="323.87" y="399" width="100" height="30" as="geometry" />
        </mxCell>
        <mxCell id="L_iJoH3IVwdDoCf6mlqg-1" style="edgeStyle=orthogonalEdgeStyle;rounded=1;orthogonalLoop=1;jettySize=auto;html=1;entryX=0;entryY=0.5;entryDx=0;entryDy=0;" parent="1" target="HNVA6WiqorS_5JB8nSDx-1" edge="1">
          <mxGeometry relative="1" as="geometry">
            <mxPoint x="120" y="370" as="sourcePoint" />
            <mxPoint x="335.87" y="370" as="targetPoint" />
            <Array as="points">
              <mxPoint x="200" y="370" />
              <mxPoint x="200" y="500" />
              <mxPoint x="210" y="500" />
              <mxPoint x="210" y="370" />
              <mxPoint x="220" y="370" />
              <mxPoint x="220" y="500" />
              <mxPoint x="230" y="500" />
              <mxPoint x="230" y="370" />
              <mxPoint x="240" y="370" />
              <mxPoint x="240" y="500" />
              <mxPoint x="250" y="500" />
              <mxPoint x="250" y="370" />
              <mxPoint x="260" y="370" />
              <mxPoint x="260" y="500" />
              <mxPoint x="270" y="500" />
              <mxPoint x="270" y="370" />
              <mxPoint x="280" y="370" />
              <mxPoint x="280" y="500" />
              <mxPoint x="290" y="500" />
              <mxPoint x="290" y="370" />
            </Array>
          </mxGeometry>
        </mxCell>
        <mxCell id="L_iJoH3IVwdDoCf6mlqg-2" value="&lt;b&gt;一级过热器&lt;/b&gt;" style="text;html=1;align=center;verticalAlign=middle;resizable=0;points=[];autosize=1;strokeColor=none;fillColor=none;" parent="1" vertex="1">
          <mxGeometry x="202" y="506" width="80" height="30" as="geometry" />
        </mxCell>
        <mxCell id="L_iJoH3IVwdDoCf6mlqg-3" value="&lt;font style=&quot;font-size: 8px;&quot;&gt;OP&lt;/font&gt;" style="ellipse;whiteSpace=wrap;html=1;aspect=fixed;fillColor=#dae8fc;strokeColor=#6c8ebf;" parent="1" vertex="1">
          <mxGeometry x="436" y="263" width="20" height="20" as="geometry" />
        </mxCell>
        <mxCell id="bSnm9G_KOaWVCs9BZ3Rs-1" value="&lt;svg style=&quot;vertical-align: -0.566ex;&quot; xmlns:xlink=&quot;http://www.w3.org/1999/xlink&quot; viewBox=&quot;0 -750 1711 1000&quot; role=&quot;img&quot; height=&quot;2.262ex&quot; width=&quot;3.871ex&quot; xmlns=&quot;http://www.w3.org/2000/svg&quot;&gt;&lt;defs&gt;&lt;path d=&quot;M21 287Q21 295 30 318T55 370T99 420T158 442Q204 442 227 417T250 358Q250 340 216 246T182 105Q182 62 196 45T238 27T291 44T328 78L339 95Q341 99 377 247Q407 367 413 387T427 416Q444 431 463 431Q480 431 488 421T496 402L420 84Q419 79 419 68Q419 43 426 35T447 26Q469 29 482 57T512 145Q514 153 532 153Q551 153 551 144Q550 139 549 130T540 98T523 55T498 17T462 -8Q454 -10 438 -10Q372 -10 347 46Q345 45 336 36T318 21T296 6T267 -6T233 -11Q189 -11 155 7Q103 38 103 113Q103 170 138 262T173 379Q173 380 173 381Q173 390 173 393T169 400T158 404H154Q131 404 112 385T82 344T65 302T57 280Q55 278 41 278H27Q21 284 21 287Z&quot; id=&quot;MJX-2-TEX-I-1D462&quot;&gt;&lt;/path&gt;&lt;path d=&quot;M94 250Q94 319 104 381T127 488T164 576T202 643T244 695T277 729T302 750H315H319Q333 750 333 741Q333 738 316 720T275 667T226 581T184 443T167 250T184 58T225 -81T274 -167T316 -220T333 -241Q333 -250 318 -250H315H302L274 -226Q180 -141 137 -14T94 250Z&quot; id=&quot;MJX-2-TEX-N-28&quot;&gt;&lt;/path&gt;&lt;path d=&quot;M26 385Q19 392 19 395Q19 399 22 411T27 425Q29 430 36 430T87 431H140L159 511Q162 522 166 540T173 566T179 586T187 603T197 615T211 624T229 626Q247 625 254 615T261 596Q261 589 252 549T232 470L222 433Q222 431 272 431H323Q330 424 330 420Q330 398 317 385H210L174 240Q135 80 135 68Q135 26 162 26Q197 26 230 60T283 144Q285 150 288 151T303 153H307Q322 153 322 145Q322 142 319 133Q314 117 301 95T267 48T216 6T155 -11Q125 -11 98 4T59 56Q57 64 57 83V101L92 241Q127 382 128 383Q128 385 77 385H26Z&quot; id=&quot;MJX-2-TEX-I-1D461&quot;&gt;&lt;/path&gt;&lt;path d=&quot;M60 749L64 750Q69 750 74 750H86L114 726Q208 641 251 514T294 250Q294 182 284 119T261 12T224 -76T186 -143T145 -194T113 -227T90 -246Q87 -249 86 -250H74Q66 -250 63 -250T58 -247T55 -238Q56 -237 66 -225Q221 -64 221 250T66 725Q56 737 55 738Q55 746 60 749Z&quot; id=&quot;MJX-2-TEX-N-29&quot;&gt;&lt;/path&gt;&lt;/defs&gt;&lt;g transform=&quot;scale(1,-1)&quot; stroke-width=&quot;0&quot; fill=&quot;currentColor&quot; stroke=&quot;currentColor&quot;&gt;&lt;g data-mml-node=&quot;math&quot;&gt;&lt;g data-mml-node=&quot;mi&quot;&gt;&lt;use xlink:href=&quot;#MJX-2-TEX-I-1D462&quot; data-c=&quot;1D462&quot;&gt;&lt;/use&gt;&lt;/g&gt;&lt;g transform=&quot;translate(572,0)&quot; data-mml-node=&quot;mo&quot;&gt;&lt;use xlink:href=&quot;#MJX-2-TEX-N-28&quot; data-c=&quot;28&quot;&gt;&lt;/use&gt;&lt;/g&gt;&lt;g transform=&quot;translate(961,0)&quot; data-mml-node=&quot;mi&quot;&gt;&lt;use xlink:href=&quot;#MJX-2-TEX-I-1D461&quot; data-c=&quot;1D461&quot;&gt;&lt;/use&gt;&lt;/g&gt;&lt;g transform=&quot;translate(1322,0)&quot; data-mml-node=&quot;mo&quot;&gt;&lt;use xlink:href=&quot;#MJX-2-TEX-N-29&quot; data-c=&quot;29&quot;&gt;&lt;/use&gt;&lt;/g&gt;&lt;/g&gt;&lt;/g&gt;&lt;/svg&gt;" style="text;html=1;align=center;verticalAlign=middle;resizable=0;points=[];autosize=1;strokeColor=none;fillColor=none;" vertex="1" parent="1">
          <mxGeometry x="373.87" y="320" width="50" height="30" as="geometry" />
        </mxCell>
        <mxCell id="bSnm9G_KOaWVCs9BZ3Rs-3" value="$$y(t)$$" style="text;html=1;align=center;verticalAlign=middle;resizable=0;points=[];autosize=1;strokeColor=none;fillColor=none;" vertex="1" parent="1">
          <mxGeometry x="534" y="369" width="70" height="30" as="geometry" />
        </mxCell>
      </root>
    </mxGraphModel>
  </diagram>
</mxfile>
